<svg width="20" height="20" viewBox="0 0 20 20" fill="none" xmlns="http://www.w3.org/2000/svg">
<path fill-rule="evenodd" clip-rule="evenodd" d="M8.5002 2.21484C5.0208 2.21484 2.2002 5.03545 2.2002 8.51484C2.2002 11.9942 5.0208 14.8148 8.5002 14.8148C9.95443 14.8148 11.2936 14.3221 12.3598 13.4945C12.3823 13.5245 12.4072 13.5532 12.4345 13.5805L15.4345 16.5805C15.7469 16.8929 16.2535 16.8929 16.5659 16.5805C16.8783 16.2681 16.8783 15.7616 16.5659 15.4492L13.5659 12.4492C13.5386 12.4219 13.5098 12.397 13.4799 12.3745C14.3075 11.3082 14.8002 9.96908 14.8002 8.51484C14.8002 5.03545 11.9796 2.21484 8.5002 2.21484ZM3.8002 8.51484C3.8002 5.91911 5.90446 3.81484 8.5002 3.81484C11.0959 3.81484 13.2002 5.91911 13.2002 8.51484C13.2002 11.1106 11.0959 13.2148 8.5002 13.2148C5.90446 13.2148 3.8002 11.1106 3.8002 8.51484Z" fill="#130817" fill-opacity="0.3"/>
</svg>
